<svg width="20" height="20" viewBox="0 0 20 20" fill="none" xmlns="http://www.w3.org/2000/svg">
<path d="M10 8.33333V13.3333V8.33333ZM10 13.3333L7.50001 10.8333L10 13.3333ZM10 13.3333L12.5 10.8333L10 13.3333ZM14.1667 17.5H5.83334C5.39131 17.5 4.96739 17.3244 4.65483 17.0118C4.34227 16.6993 4.16667 16.2754 4.16667 15.8333V4.16667C4.16667 3.72464 4.34227 3.30072 4.65483 2.98816C4.96739 2.67559 5.39131 2.5 5.83334 2.5H10.4883C10.7093 2.50005 10.9213 2.58788 11.0775 2.74417L15.5892 7.25583C15.7455 7.41208 15.8333 7.624 15.8333 7.845V15.8333C15.8333 16.2754 15.6577 16.6993 15.3452 17.0118C15.0326 17.3244 14.6087 17.5 14.1667 17.5Z" stroke="#FAF5F5" stroke-linecap="round" stroke-linejoin="round"/>
</svg>
