<svg width="20" height="20" viewBox="0 0 20 20" fill="none" xmlns="http://www.w3.org/2000/svg">
  <path d="M3.33333 5.83333H16.6667M15.8333 5.83333L15.1108 15.9517C15.0809 16.3722 14.8927 16.7657 14.5843 17.053C14.2758 17.3403 13.8699 17.5 13.4483 17.5H6.55166C6.13011 17.5 5.72422 17.3403 5.41573 17.053C5.10725 16.7657 4.91909 16.3722 4.88916 15.9517L4.16666 5.83333H15.8333ZM8.33333 9.16667V14.1667V9.16667ZM11.6667 9.16667V14.1667V9.16667ZM12.5 5.83333V3.33333C12.5 3.11232 12.4122 2.90036 12.2559 2.74408C12.0996 2.5878 11.8877 2.5 11.6667 2.5H8.33333C8.11231 2.5 7.90035 2.5878 7.74407 2.74408C7.58779 2.90036 7.49999 3.11232 7.49999 3.33333V5.83333H12.5Z" stroke="#FAF5F5" stroke-linecap="round" stroke-linejoin="round" />
</svg>
  